<svg width="196" height="210" viewBox="0 0 196 210" fill="none" xmlns="http://www.w3.org/2000/svg">
<g clip-path="url(#clip0_51_480)">
<rect y="81" width="30" height="97" rx="8" fill="#E9E9E9"/>
<rect x="41" y="51" width="30" height="127" rx="8" fill="#E9E9E9"/>
<rect x="82" y="144" width="30" height="34" rx="8" fill="#E9E9E9"/>
<rect x="123" y="81" width="30" height="97" rx="8" fill="#E9E9E9"/>
<rect x="164" y="123" width="30" height="55" rx="8" fill="#F2994A"/>
<path fill-rule="evenodd" clip-rule="evenodd" d="M193 106C193 103.239 190.761 101 188 101H171C168.239 101 166 103.239 166 106V112.675C166 114.511 167.489 116 169.325 116H174.574C175.421 116 176 117.154 176 118C176 119.657 177.343 121 179 121C180.657 121 182 119.657 182 118C182 117.154 182.579 116 183.426 116H189.366C191.373 116 193 114.373 193 112.366V106Z" fill="#242424"/>
<path d="M173.428 112.064C173.033 112.064 172.649 112.003 172.276 111.88C171.908 111.757 171.607 111.592 171.372 111.384L171.74 110.752C171.927 110.928 172.169 111.072 172.468 111.184C172.767 111.296 173.087 111.352 173.428 111.352C173.844 111.352 174.167 111.264 174.396 111.088C174.631 110.907 174.748 110.664 174.748 110.36C174.748 110.067 174.636 109.832 174.412 109.656C174.193 109.475 173.844 109.384 173.364 109.384H172.916V108.824L174.58 106.776L174.692 107.096H171.628V106.4H175.324V106.944L173.668 108.984L173.252 108.736H173.516C174.193 108.736 174.7 108.888 175.036 109.192C175.377 109.496 175.548 109.883 175.548 110.352C175.548 110.667 175.471 110.955 175.316 111.216C175.161 111.477 174.927 111.685 174.612 111.84C174.303 111.989 173.908 112.064 173.428 112.064ZM178.422 112.064C177.985 112.064 177.593 111.952 177.246 111.728C176.905 111.504 176.633 111.179 176.43 110.752C176.233 110.325 176.134 109.808 176.134 109.2C176.134 108.592 176.233 108.075 176.43 107.648C176.633 107.221 176.905 106.896 177.246 106.672C177.593 106.448 177.985 106.336 178.422 106.336C178.854 106.336 179.243 106.448 179.59 106.672C179.937 106.896 180.209 107.221 180.406 107.648C180.603 108.075 180.702 108.592 180.702 109.2C180.702 109.808 180.603 110.325 180.406 110.752C180.209 111.179 179.937 111.504 179.59 111.728C179.243 111.952 178.854 112.064 178.422 112.064ZM178.422 111.352C178.715 111.352 178.971 111.272 179.19 111.112C179.414 110.952 179.587 110.712 179.71 110.392C179.838 110.072 179.902 109.675 179.902 109.2C179.902 108.725 179.838 108.328 179.71 108.008C179.587 107.688 179.414 107.448 179.19 107.288C178.971 107.128 178.715 107.048 178.422 107.048C178.129 107.048 177.87 107.128 177.646 107.288C177.422 107.448 177.246 107.688 177.118 108.008C176.995 108.328 176.934 108.725 176.934 109.2C176.934 109.675 176.995 110.072 177.118 110.392C177.246 110.712 177.422 110.952 177.646 111.112C177.87 111.272 178.129 111.352 178.422 111.352ZM182.078 112L185.902 106.4H186.518L182.694 112H182.078ZM182.526 109.408C182.27 109.408 182.043 109.344 181.846 109.216C181.649 109.088 181.494 108.909 181.382 108.68C181.275 108.451 181.222 108.184 181.222 107.88C181.222 107.576 181.275 107.309 181.382 107.08C181.494 106.851 181.649 106.672 181.846 106.544C182.043 106.416 182.27 106.352 182.526 106.352C182.787 106.352 183.014 106.416 183.206 106.544C183.403 106.672 183.555 106.851 183.662 107.08C183.769 107.309 183.822 107.576 183.822 107.88C183.822 108.184 183.769 108.451 183.662 108.68C183.555 108.909 183.403 109.088 183.206 109.216C183.014 109.344 182.787 109.408 182.526 109.408ZM182.526 108.952C182.771 108.952 182.963 108.859 183.102 108.672C183.241 108.48 183.31 108.216 183.31 107.88C183.31 107.544 183.241 107.283 183.102 107.096C182.963 106.904 182.771 106.808 182.526 106.808C182.286 106.808 182.094 106.904 181.95 107.096C181.811 107.283 181.742 107.544 181.742 107.88C181.742 108.211 181.811 108.472 181.95 108.664C182.094 108.856 182.286 108.952 182.526 108.952ZM186.07 112.048C185.814 112.048 185.587 111.984 185.39 111.856C185.193 111.728 185.041 111.549 184.934 111.32C184.827 111.091 184.774 110.824 184.774 110.52C184.774 110.216 184.827 109.949 184.934 109.72C185.041 109.491 185.193 109.312 185.39 109.184C185.587 109.056 185.814 108.992 186.07 108.992C186.331 108.992 186.558 109.056 186.75 109.184C186.947 109.312 187.099 109.491 187.206 109.72C187.318 109.949 187.374 110.216 187.374 110.52C187.374 110.824 187.318 111.091 187.206 111.32C187.099 111.549 186.947 111.728 186.75 111.856C186.558 111.984 186.331 112.048 186.07 112.048ZM186.07 111.592C186.31 111.592 186.499 111.499 186.638 111.312C186.782 111.12 186.854 110.856 186.854 110.52C186.854 110.189 186.782 109.928 186.638 109.736C186.499 109.544 186.31 109.448 186.07 109.448C185.83 109.448 185.638 109.544 185.494 109.736C185.355 109.923 185.286 110.184 185.286 110.52C185.286 110.856 185.355 111.12 185.494 111.312C185.638 111.499 185.83 111.592 186.07 111.592Z" fill="white"/>
<path d="M9.98794 202L7.64794 195H8.67794L10.8279 201.46H10.3079L12.5379 195H13.4579L15.6379 201.46H15.1379L17.3179 195H18.2679L15.9279 202H14.8779L12.8379 196.01H13.1079L11.0579 202H9.98794ZM20.0777 200.72L20.0977 199.49L23.1477 196.7H24.3077L21.9677 199L21.4477 199.44L20.0777 200.72ZM19.2977 202V194.58H20.2577V202H19.2977ZM23.3477 202L21.2677 199.42L21.8877 198.65L24.5277 202H23.3477ZM27.2054 202V201.32L30.0554 198.57C30.3087 198.33 30.4954 198.12 30.6154 197.94C30.742 197.753 30.8254 197.583 30.8654 197.43C30.912 197.27 30.9354 197.117 30.9354 196.97C30.9354 196.61 30.8087 196.327 30.5554 196.12C30.302 195.913 29.932 195.81 29.4454 195.81C29.072 195.81 28.7354 195.873 28.4354 196C28.1354 196.12 27.8754 196.31 27.6554 196.57L26.9754 195.98C27.242 195.64 27.5987 195.38 28.0454 195.2C28.4987 195.013 28.9954 194.92 29.5354 194.92C30.022 194.92 30.4454 195 30.8054 195.16C31.1654 195.313 31.442 195.537 31.6354 195.83C31.8354 196.123 31.9354 196.47 31.9354 196.87C31.9354 197.097 31.9054 197.32 31.8454 197.54C31.7854 197.76 31.672 197.993 31.5054 198.24C31.3387 198.487 31.0987 198.763 30.7854 199.07L28.2454 201.52L28.0054 201.13H32.2354V202H27.2054Z" fill="#242424" fill-opacity="0.8"/>
<path d="M48.9032 202L46.5632 195H47.5932L49.7432 201.46H49.2232L51.4532 195H52.3732L54.5532 201.46H54.0532L56.2332 195H57.1832L54.8432 202H53.7932L51.7532 196.01H52.0232L49.9732 202H48.9032ZM58.993 200.72L59.013 199.49L62.063 196.7H63.223L60.883 199L60.363 199.44L58.993 200.72ZM58.213 202V194.58H59.173V202H58.213ZM62.263 202L60.183 199.42L60.803 198.65L63.443 202H62.263ZM68.3706 202.08C67.8773 202.08 67.3973 202.003 66.9306 201.85C66.4706 201.697 66.094 201.49 65.8006 201.23L66.2606 200.44C66.494 200.66 66.7973 200.84 67.1706 200.98C67.544 201.12 67.944 201.19 68.3706 201.19C68.8906 201.19 69.294 201.08 69.5806 200.86C69.874 200.633 70.0206 200.33 70.0206 199.95C70.0206 199.583 69.8806 199.29 69.6006 199.07C69.3273 198.843 68.8906 198.73 68.2906 198.73H67.7306V198.03L69.8106 195.47L69.9506 195.87H66.1206V195H70.7406V195.68L68.6706 198.23L68.1506 197.92H68.4806C69.3273 197.92 69.9606 198.11 70.3806 198.49C70.8073 198.87 71.0206 199.353 71.0206 199.94C71.0206 200.333 70.924 200.693 70.7306 201.02C70.5373 201.347 70.244 201.607 69.8506 201.8C69.464 201.987 68.9706 202.08 68.3706 202.08Z" fill="#242424" fill-opacity="0.8"/>
<path d="M87.3253 202L84.9853 195H86.0153L88.1653 201.46H87.6453L89.8753 195H90.7953L92.9753 201.46H92.4753L94.6553 195H95.6053L93.2653 202H92.2153L90.1753 196.01H90.4453L88.3953 202H87.3253ZM97.4151 200.72L97.4351 199.49L100.485 196.7H101.645L99.3051 199L98.7851 199.44L97.4151 200.72ZM96.6351 202V194.58H97.5951V202H96.6351ZM100.685 202L98.6051 199.42L99.2251 198.65L101.865 202H100.685ZM104.553 200.28V199.58L108.133 195H109.213L105.663 199.58L105.153 199.42H110.743V200.28H104.553ZM108.443 202V200.28L108.473 199.42V197.9H109.413V202H108.443Z" fill="#242424" fill-opacity="0.8"/>
<path d="M126.704 202L124.364 195H125.394L127.544 201.46H127.024L129.254 195H130.174L132.354 201.46H131.854L134.034 195H134.984L132.644 202H131.594L129.554 196.01H129.824L127.774 202H126.704ZM136.794 200.72L136.814 199.49L139.864 196.7H141.024L138.684 199L138.164 199.44L136.794 200.72ZM136.014 202V194.58H136.974V202H136.014ZM140.064 202L137.984 199.42L138.604 198.65L141.244 202H140.064ZM146.292 202.08C145.798 202.08 145.318 202.003 144.852 201.85C144.392 201.697 144.015 201.49 143.722 201.23L144.182 200.44C144.415 200.66 144.718 200.84 145.092 200.98C145.465 201.12 145.862 201.19 146.282 201.19C146.815 201.19 147.225 201.077 147.512 200.85C147.798 200.623 147.942 200.32 147.942 199.94C147.942 199.68 147.878 199.453 147.752 199.26C147.625 199.067 147.405 198.92 147.092 198.82C146.785 198.713 146.362 198.66 145.822 198.66H144.232L144.602 195H148.552V195.87H144.972L145.492 195.38L145.202 198.27L144.682 197.79H146.032C146.732 197.79 147.295 197.88 147.722 198.06C148.148 198.24 148.458 198.49 148.652 198.81C148.845 199.123 148.942 199.487 148.942 199.9C148.942 200.3 148.845 200.667 148.652 201C148.458 201.327 148.165 201.59 147.772 201.79C147.385 201.983 146.892 202.08 146.292 202.08Z" fill="#242424" fill-opacity="0.8"/>
<path d="M165.395 202L163.055 195H164.085L166.235 201.46H165.715L167.945 195H168.865L171.045 201.46H170.545L172.725 195H173.675L171.335 202H170.285L168.245 196.01H168.515L166.465 202H165.395ZM175.485 200.72L175.505 199.49L178.555 196.7H179.715L177.375 199L176.855 199.44L175.485 200.72ZM174.705 202V194.58H175.665V202H174.705ZM178.755 202L176.675 199.42L177.295 198.65L179.935 202H178.755ZM185.662 202.08C185.042 202.08 184.512 201.943 184.072 201.67C183.632 201.397 183.296 201.003 183.062 200.49C182.836 199.97 182.722 199.337 182.722 198.59C182.722 197.797 182.862 197.127 183.142 196.58C183.422 196.033 183.812 195.62 184.312 195.34C184.812 195.06 185.386 194.92 186.032 194.92C186.366 194.92 186.682 194.953 186.982 195.02C187.289 195.087 187.552 195.19 187.772 195.33L187.392 196.11C187.212 195.983 187.006 195.897 186.772 195.85C186.546 195.803 186.306 195.78 186.052 195.78C185.339 195.78 184.772 196.003 184.352 196.45C183.932 196.89 183.722 197.547 183.722 198.42C183.722 198.56 183.729 198.727 183.742 198.92C183.756 199.113 183.789 199.303 183.842 199.49L183.502 199.15C183.602 198.843 183.759 198.587 183.972 198.38C184.192 198.167 184.452 198.01 184.752 197.91C185.059 197.803 185.389 197.75 185.742 197.75C186.209 197.75 186.622 197.837 186.982 198.01C187.342 198.183 187.626 198.43 187.832 198.75C188.039 199.063 188.142 199.437 188.142 199.87C188.142 200.317 188.032 200.707 187.812 201.04C187.592 201.373 187.296 201.63 186.922 201.81C186.549 201.99 186.129 202.08 185.662 202.08ZM185.622 201.27C185.929 201.27 186.196 201.213 186.422 201.1C186.656 200.987 186.839 200.83 186.972 200.63C187.106 200.423 187.172 200.183 187.172 199.91C187.172 199.497 187.029 199.17 186.742 198.93C186.456 198.683 186.066 198.56 185.572 198.56C185.252 198.56 184.972 198.62 184.732 198.74C184.492 198.86 184.302 199.023 184.162 199.23C184.029 199.43 183.962 199.66 183.962 199.92C183.962 200.16 184.026 200.383 184.152 200.59C184.279 200.79 184.466 200.953 184.712 201.08C184.959 201.207 185.262 201.27 185.622 201.27Z" fill="#242424" fill-opacity="0.8"/>
</g>
<defs>
<clipPath id="clip0_51_480">
<rect width="195.527" height="209.936" fill="white"/>
</clipPath>
</defs>
</svg>
