<svg width="209" height="63" viewBox="0 0 209 63" fill="none" xmlns="http://www.w3.org/2000/svg">
<path d="M16 28.431L25.2782 19.931L28.8468 22.931L31.7016 14.931L34.5565 16.931H38.125L43.8347 25.931L47.4032 23.931L53.1129 28.431L56.6815 21.931L59.5363 25.931L63.1048 21.431L65.246 27.431H68.8145L71.6694 24.431L74.5242 25.931L83.8024 25.431L87.371 29.931L91.6532 23.931H93.7944L98.0766 27.431L105.927 23.931H108.782L112.351 15.931H115.206L118.06 22.931L121.629 24.931L124.484 12.431L130.194 25.431L136.617 23.431L139.472 19.931L145.895 16.931L152.319 19.931L158.742 16.431H161.597L164.452 14.431L167.306 21.931L170.875 15.431L173.73 22.431L176.585 17.931L180.153 16.431L183.008 23.431L188.718 15.931" stroke="#43A047" stroke-width="1.5"/>
<circle cx="3" cy="3" r="3" transform="matrix(1 0 0 -1 188 16.931)" fill="#43A047"/>
</svg>
