<svg width="23" height="26" viewBox="0 0 23 26" fill="none" xmlns="http://www.w3.org/2000/svg">
<mask id="mask0_9_6" style="mask-type:luminance" maskUnits="userSpaceOnUse" x="0" y="0" width="23" height="21">
<path fill-rule="evenodd" clip-rule="evenodd" d="M0.500122 0.166626H22.0799V20.406H0.500122V0.166626Z" fill="white"/>
</mask>
<g mask="url(#mask0_9_6)">
<path fill-rule="evenodd" clip-rule="evenodd" d="M11.2883 1.91663C7.2108 1.91663 4.3688 5.11096 4.3688 7.97746C4.3688 10.403 3.69564 11.5241 3.10064 12.5135C2.62347 13.308 2.24664 13.9356 2.24664 15.2995C2.44147 17.4998 3.89397 18.656 11.2883 18.656C18.6418 18.656 20.1398 17.4485 20.3335 15.2236C20.33 13.9356 19.9531 13.308 19.476 12.5135C18.881 11.5241 18.2078 10.403 18.2078 7.97746C18.2078 5.11096 15.3658 1.91663 11.2883 1.91663ZM11.2883 20.406C5.83297 20.406 0.902638 20.021 0.500138 15.3741C0.496638 13.4515 1.08347 12.4738 1.60147 11.6128C2.1253 10.7401 2.6188 9.91763 2.6188 7.97746C2.6188 4.20563 6.10247 0.166626 11.2883 0.166626C16.4741 0.166626 19.9578 4.20563 19.9578 7.97746C19.9578 9.91763 20.4513 10.7401 20.9751 11.6128C21.4931 12.4738 22.08 13.4515 22.08 15.2995C21.6728 20.021 16.7436 20.406 11.2883 20.406Z" fill="#242424" fill-opacity="0.8"/>
</g>
<path fill-rule="evenodd" clip-rule="evenodd" d="M11.2313 25.25H11.229C9.92115 25.2488 8.68332 24.6725 7.74415 23.626C7.42098 23.2678 7.45015 22.7136 7.80948 22.3916C8.16882 22.0673 8.72182 22.0965 9.04498 22.457C9.64932 23.1301 10.4251 23.5 11.2301 23.5H11.2313C12.0398 23.5 12.8191 23.1301 13.4246 22.4558C13.749 22.0976 14.302 22.0685 14.6601 22.3916C15.0195 22.7148 15.0486 23.269 14.7255 23.6271C13.7828 24.6736 12.5426 25.25 11.2313 25.25Z" fill="#242424" fill-opacity="0.8"/>
</svg>
