<svg width="10" height="10" viewBox="0 0 10 10" fill="none" xmlns="http://www.w3.org/2000/svg">
<path d="M1.15302 6.59157L1.53344 6.46796L1.15302 6.59157ZM0.69031 4.02153L1.07501 4.13111L0.69031 4.02153ZM2.62248 2.06902L2.38737 1.74542L2.62248 2.06902ZM0.737513 3.87625L1.11315 4.01372L0.737513 3.87625ZM2.41289 9.03253L2.1898 9.36454L2.41289 9.03253ZM2.28931 8.94274L2.04249 9.25751L2.28931 8.94274ZM8.84723 6.59157L8.46681 6.46796L8.84723 6.59157ZM7.71094 8.94274L7.95776 9.25751L7.71094 8.94274ZM7.58736 9.03253L7.81045 9.36454L7.58736 9.03253ZM7.37777 2.06902L7.61288 1.74542L7.37777 2.06902ZM9.26274 3.87625L8.8871 4.01372L9.26274 3.87625ZM9.30994 4.02153L8.92524 4.13111L9.30994 4.02153ZM5.0765 0.834774L5.06184 1.23451L5.0765 0.834774ZM4.92375 0.834774L4.93841 1.23451L4.92375 0.834774ZM4.16679 7.0249C3.94588 7.0249 3.76679 7.20399 3.76679 7.4249C3.76679 7.64581 3.94588 7.8249 4.16679 7.8249V7.0249ZM5.83346 7.8249C6.05437 7.8249 6.23346 7.64581 6.23346 7.4249C6.23346 7.20399 6.05437 7.0249 5.83346 7.0249V7.8249ZM1.53344 6.46796C1.31854 5.80656 1.1677 5.34056 1.08879 4.96371C1.0118 4.59604 1.01231 4.35124 1.07501 4.13111L0.305612 3.91195C0.194379 4.30246 0.214026 4.68954 0.305769 5.12767C0.395589 5.55661 0.563068 6.07031 0.772597 6.71517L1.53344 6.46796ZM2.38737 1.74542C1.83882 2.14396 1.40138 2.46111 1.07659 2.75534C0.74484 3.05587 0.501424 3.35747 0.361877 3.73878L1.11315 4.01372C1.19181 3.79878 1.33529 3.60043 1.61369 3.34823C1.89903 3.08974 2.29498 2.8014 2.8576 2.39263L2.38737 1.74542ZM1.07501 4.13111C1.08628 4.09153 1.099 4.05237 1.11315 4.01372L0.361877 3.73878C0.341012 3.7958 0.322244 3.85356 0.305612 3.91195L1.07501 4.13111ZM5.00012 8.98665C4.30469 8.98665 3.81488 8.98611 3.43209 8.94471C3.05863 8.90431 2.82596 8.82818 2.63598 8.70052L2.1898 9.36454C2.52682 9.591 2.90103 9.69193 3.34606 9.74007C3.78177 9.78719 4.32207 9.78665 5.00012 9.78665V8.98665ZM0.772597 6.71517C0.982126 7.36004 1.14858 7.87407 1.32804 8.27388C1.51134 8.68226 1.72296 9.00697 2.04249 9.25751L2.53613 8.62797C2.35601 8.48674 2.21171 8.28898 2.05788 7.94629C1.90022 7.59502 1.74834 7.12936 1.53344 6.46796L0.772597 6.71517ZM2.63598 8.70052C2.60182 8.67757 2.56851 8.65337 2.53613 8.62797L2.04249 9.25751C2.09027 9.29498 2.1394 9.33068 2.1898 9.36454L2.63598 8.70052ZM8.46681 6.46796C8.2519 7.12936 8.10003 7.59502 7.94236 7.94629C7.78854 8.28898 7.64424 8.48674 7.46412 8.62797L7.95776 9.25751C8.27728 9.00697 8.48891 8.68226 8.67221 8.27388C8.85167 7.87407 9.01812 7.36004 9.22765 6.71517L8.46681 6.46796ZM5.00012 9.78665C5.67817 9.78665 6.21848 9.78719 6.65419 9.74007C7.09922 9.69193 7.47343 9.591 7.81045 9.36454L7.36427 8.70052C7.17429 8.82818 6.94162 8.90431 6.56816 8.94471C6.18537 8.98611 5.69556 8.98665 5.00012 8.98665V9.78665ZM7.46412 8.62797C7.43173 8.65337 7.39843 8.67757 7.36427 8.70052L7.81045 9.36454C7.86085 9.33068 7.90998 9.29498 7.95776 9.25751L7.46412 8.62797ZM7.14265 2.39263C7.70527 2.8014 8.10121 3.08974 8.38656 3.34823C8.66495 3.60043 8.80844 3.79878 8.8871 4.01372L9.63837 3.73878C9.49882 3.35747 9.25541 3.05587 8.92366 2.75534C8.59887 2.46111 8.16143 2.14396 7.61288 1.74542L7.14265 2.39263ZM9.22765 6.71517C9.43718 6.07031 9.60466 5.55661 9.69448 5.12767C9.78622 4.68954 9.80587 4.30246 9.69464 3.91195L8.92524 4.13111C8.98794 4.35124 8.98845 4.59604 8.91146 4.96371C8.83255 5.34056 8.68171 5.80656 8.46681 6.46796L9.22765 6.71517ZM8.8871 4.01372C8.90124 4.05237 8.91397 4.09152 8.92524 4.13111L9.69464 3.91195C9.67801 3.85356 9.65924 3.7958 9.63837 3.73878L8.8871 4.01372ZM7.61288 1.74542C7.06433 1.34687 6.62753 1.02885 6.24733 0.810871C5.859 0.588229 5.49693 0.449929 5.09116 0.435043L5.06184 1.23451C5.29057 1.2429 5.52355 1.31806 5.84943 1.5049C6.18345 1.6964 6.58003 1.98386 7.14265 2.39263L7.61288 1.74542ZM2.8576 2.39263C3.42022 1.98386 3.8168 1.6964 4.15082 1.5049C4.4767 1.31806 4.70968 1.2429 4.93841 1.23451L4.90908 0.435043C4.50331 0.449929 4.14125 0.588229 3.75291 0.810871C3.37272 1.02885 2.93592 1.34687 2.38737 1.74542L2.8576 2.39263ZM5.09116 0.435043C5.03049 0.432818 4.96976 0.432818 4.90908 0.435043L4.93841 1.23451C4.97954 1.233 5.02071 1.233 5.06184 1.23451L5.09116 0.435043ZM4.16679 7.8249H5.83346V7.0249H4.16679V7.8249Z" fill="#4F4F4F"/>
</svg>
