<svg width="116" height="116" viewBox="0 0 116 116" fill="none" xmlns="http://www.w3.org/2000/svg">
<g filter="url(#filter0_d_37_95)">
<path d="M103.436 57.7178C103.436 82.967 82.967 103.436 57.7178 103.436C32.4686 103.436 12 82.967 12 57.7178C12 32.4686 32.4686 12 57.7178 12C82.967 12 103.436 32.4686 103.436 57.7178ZM25.7153 57.7178C25.7153 75.3923 40.0433 89.7202 57.7178 89.7202C75.3923 89.7202 89.7202 75.3923 89.7202 57.7178C89.7202 40.0433 75.3923 25.7153 57.7178 25.7153C40.0433 25.7153 25.7153 40.0433 25.7153 57.7178Z" fill="#EEEEEE"/>
</g>
<path d="M96.5779 58.2822C100.365 58.2822 103.488 61.3695 102.922 65.1143C102.081 70.6819 100.215 76.0662 97.3988 80.9876C93.443 87.901 87.7497 93.6609 80.8827 97.6967C74.0158 101.733 66.2136 103.904 58.2491 103.997C50.2845 104.09 42.4339 102.1 35.4751 98.2244C28.5162 94.3492 22.6906 88.7232 18.5752 81.9036C14.4598 75.0841 12.1975 67.3077 12.0123 59.3447C11.8272 51.3818 13.7258 43.5086 17.5198 36.5052C20.2207 31.5197 23.8154 27.0981 28.1054 23.4509C30.9909 20.9977 35.2599 22.0269 37.2543 25.2466C39.2487 28.4663 38.1876 32.6488 35.4656 35.2823C33.1289 37.5431 31.1407 40.1561 29.5792 43.0383C26.9234 47.9407 25.5944 53.4519 25.724 59.026C25.8536 64.6 27.4372 70.0435 30.3179 74.8172C33.1987 79.5909 37.2767 83.5291 42.1479 86.2418C47.0191 88.9544 52.5145 90.3473 58.0897 90.2825C63.6649 90.2177 69.1264 88.6975 73.9333 85.8724C78.7401 83.0473 82.7254 79.0153 85.4945 74.176C87.1225 71.3308 88.2969 68.2646 88.9883 65.0876C89.7937 61.3869 92.7905 58.2822 96.5779 58.2822Z" fill="url(#paint0_linear_37_95)"/>
<path d="M42.145 65L45.985 56.285L45.82 56.06H40.495V54.05H48.79V55.61L44.755 65H42.145ZM40.495 57.83V54.05H42.49V57.83H40.495ZM54.8413 65.285C53.9713 65.285 53.2263 65.145 52.6063 64.865C51.9863 64.575 51.4813 64.185 51.0913 63.695C50.7113 63.205 50.4263 62.64 50.2363 62C50.0563 61.35 49.9663 60.665 49.9663 59.945V59.09C49.9663 58.09 50.1413 57.185 50.4913 56.375C50.8413 55.565 51.3763 54.92 52.0963 54.44C52.8163 53.96 53.7313 53.72 54.8413 53.72C55.9513 53.72 56.8613 53.96 57.5713 54.44C58.2913 54.92 58.8263 55.565 59.1763 56.375C59.5263 57.185 59.7013 58.09 59.7013 59.09V59.945C59.7013 60.665 59.6063 61.35 59.4163 62C59.2363 62.64 58.9513 63.205 58.5613 63.695C58.1813 64.185 57.6813 64.575 57.0613 64.865C56.4513 65.145 55.7113 65.285 54.8413 65.285ZM54.8413 63.02C55.6513 63.02 56.2513 62.74 56.6413 62.18C57.0413 61.61 57.2413 60.73 57.2413 59.54C57.2413 58.28 57.0363 57.375 56.6263 56.825C56.2263 56.265 55.6313 55.985 54.8413 55.985C54.0313 55.985 53.4263 56.265 53.0263 56.825C52.6263 57.375 52.4263 58.27 52.4263 59.51C52.4263 60.71 52.6213 61.595 53.0113 62.165C53.4113 62.735 54.0213 63.02 54.8413 63.02ZM64.2568 65L68.2468 54.05H70.2568L66.2818 65H64.2568ZM63.5068 60.065C62.9168 60.065 62.4218 59.935 62.0218 59.675C61.6318 59.405 61.3368 59.05 61.1368 58.61C60.9468 58.16 60.8518 57.665 60.8518 57.125V56.735C60.8518 56.165 60.9518 55.66 61.1518 55.22C61.3518 54.78 61.6518 54.435 62.0518 54.185C62.4518 53.935 62.9368 53.81 63.5068 53.81C64.0868 53.81 64.5718 53.935 64.9618 54.185C65.3618 54.435 65.6618 54.78 65.8618 55.22C66.0618 55.66 66.1618 56.165 66.1618 56.735V57.125C66.1618 57.665 66.0618 58.16 65.8618 58.61C65.6718 59.05 65.3818 59.405 64.9918 59.675C64.6018 59.935 64.1068 60.065 63.5068 60.065ZM63.5068 58.46C63.8168 58.46 64.0418 58.35 64.1818 58.13C64.3318 57.9 64.4068 57.505 64.4068 56.945C64.4068 56.355 64.3318 55.95 64.1818 55.73C64.0318 55.51 63.8068 55.4 63.5068 55.4C63.2068 55.4 62.9818 55.51 62.8318 55.73C62.6818 55.95 62.6068 56.35 62.6068 56.93C62.6068 57.49 62.6818 57.885 62.8318 58.115C62.9818 58.345 63.2068 58.46 63.5068 58.46ZM70.9618 65.255C70.3618 65.255 69.8668 65.125 69.4768 64.865C69.0868 64.605 68.7918 64.255 68.5918 63.815C68.4018 63.365 68.3068 62.87 68.3068 62.33V61.94C68.3068 61.36 68.4068 60.85 68.6068 60.41C68.8068 59.97 69.1018 59.625 69.4918 59.375C69.8918 59.125 70.3818 59 70.9618 59C71.5418 59 72.0268 59.125 72.4168 59.375C72.8068 59.625 73.1018 59.97 73.3018 60.41C73.5018 60.85 73.6018 61.36 73.6018 61.94V62.33C73.6018 62.87 73.5018 63.365 73.3018 63.815C73.1118 64.255 72.8218 64.605 72.4318 64.865C72.0518 65.125 71.5618 65.255 70.9618 65.255ZM70.9618 63.665C71.2718 63.665 71.4968 63.555 71.6368 63.335C71.7868 63.105 71.8618 62.71 71.8618 62.15C71.8618 61.55 71.7868 61.145 71.6368 60.935C71.4868 60.715 71.2618 60.605 70.9618 60.605C70.6618 60.605 70.4318 60.715 70.2718 60.935C70.1218 61.145 70.0468 61.545 70.0468 62.135C70.0468 62.695 70.1218 63.09 70.2718 63.32C70.4218 63.55 70.6518 63.665 70.9618 63.665Z" fill="black"/>
<defs>
<filter id="filter0_d_37_95" x="0" y="0" width="115.436" height="115.436" filterUnits="userSpaceOnUse" color-interpolation-filters="sRGB">
<feFlood flood-opacity="0" result="BackgroundImageFix"/>
<feColorMatrix in="SourceAlpha" type="matrix" values="0 0 0 0 0 0 0 0 0 0 0 0 0 0 0 0 0 0 127 0" result="hardAlpha"/>
<feMorphology radius="12" operator="dilate" in="SourceAlpha" result="effect1_dropShadow_37_95"/>
<feOffset/>
<feComposite in2="hardAlpha" operator="out"/>
<feColorMatrix type="matrix" values="0 0 0 0 0 0 0 0 0 0 0 0 0 0 0 0 0 0 0.02 0"/>
<feBlend mode="normal" in2="BackgroundImageFix" result="effect1_dropShadow_37_95"/>
<feBlend mode="normal" in="SourceGraphic" in2="effect1_dropShadow_37_95" result="shape"/>
</filter>
<linearGradient id="paint0_linear_37_95" x1="12" y1="58.2822" x2="103.436" y2="58.2822" gradientUnits="userSpaceOnUse">
<stop stop-color="#0043C8"/>
<stop offset="1" stop-color="#5890FF"/>
</linearGradient>
</defs>
</svg>
