<svg width="17" height="17" viewBox="0 0 17 17" fill="none" xmlns="http://www.w3.org/2000/svg">
<path d="M13.4257 12.86C13.2695 12.7038 13.0162 12.7038 12.86 12.86C12.7038 13.0162 12.7038 13.2695 12.86 13.4257L13.4257 12.86ZM15.7171 16.2828C15.8733 16.439 16.1265 16.439 16.2827 16.2828C16.439 16.1266 16.439 15.8733 16.2828 15.7171L15.7171 16.2828ZM6.21812 3.58189C6.43631 3.54733 6.58518 3.34243 6.55062 3.12424C6.51606 2.90605 6.31116 2.75718 6.09297 2.79174L6.21812 3.58189ZM2.79172 6.09299C2.75716 6.31119 2.90602 6.51608 3.12422 6.55064C3.34241 6.5852 3.54731 6.43633 3.58187 6.21814L2.79172 6.09299ZM12.86 13.4257L15.7171 16.2828L16.2828 15.7171L13.4257 12.86L12.86 13.4257ZM7.42854 13.4571C4.09907 13.4571 1.4 10.758 1.4 7.42854H0.6C0.6 11.1998 3.65724 14.2571 7.42854 14.2571V13.4571ZM13.4571 7.42854C13.4571 10.758 10.758 13.4571 7.42854 13.4571V14.2571C11.1998 14.2571 14.2571 11.1998 14.2571 7.42854H13.4571ZM7.42854 1.4C10.758 1.4 13.4571 4.09907 13.4571 7.42854H14.2571C14.2571 3.65724 11.1998 0.6 7.42854 0.6V1.4ZM7.42854 0.6C3.65724 0.6 0.6 3.65724 0.6 7.42854H1.4C1.4 4.09907 4.09907 1.4 7.42854 1.4V0.6ZM6.09297 2.79174C4.39363 3.06089 3.06087 4.39365 2.79172 6.09299L3.58187 6.21814C3.7968 4.86112 4.86109 3.79682 6.21812 3.58189L6.09297 2.79174Z" fill="#242424" fill-opacity="0.8"/>
</svg>
