<svg width="28" height="28" viewBox="0 0 28 28" fill="none" xmlns="http://www.w3.org/2000/svg">
<mask id="mask0_9_13" style="mask-type:luminance" maskUnits="userSpaceOnUse" x="2" y="2" width="23" height="25">
<path fill-rule="evenodd" clip-rule="evenodd" d="M2.33337 2.33386H24.8324V26.5084H2.33337V2.33386Z" fill="white"/>
</mask>
<g mask="url(#mask0_9_13)">
<path fill-rule="evenodd" clip-rule="evenodd" d="M8.40262 20.3472C8.66979 20.3472 8.93696 20.381 9.19829 20.451C9.98696 20.6634 10.6718 21.1907 11.0778 21.8989C11.3415 22.3434 11.4873 22.8625 11.492 23.3922C11.492 24.1505 12.101 24.7584 12.85 24.7584H14.3118C15.0573 24.7584 15.6663 24.154 15.6698 23.4085C15.6651 22.5849 15.9871 21.802 16.5763 21.2129C17.1573 20.6319 17.9693 20.283 18.7813 20.3064C19.3133 20.3192 19.8255 20.4627 20.277 20.7194C20.9268 21.0915 21.7563 20.8699 22.132 20.2282L22.9066 18.9367C23.0793 18.6392 23.1295 18.2659 23.0373 17.9217C22.9463 17.5775 22.7176 17.2789 22.4096 17.1027C21.6886 16.6874 21.1741 16.0177 20.9606 15.215C20.7495 14.4275 20.865 13.5677 21.2768 12.8595C21.5451 12.3929 21.9383 11.9997 22.4096 11.729C23.042 11.3592 23.2636 10.532 22.8961 9.88803C22.881 9.86236 22.867 9.83553 22.8553 9.80753L22.1716 8.6222C21.7995 7.9747 20.9711 7.75186 20.3213 8.1217C19.619 8.53703 18.7836 8.65603 17.981 8.44486C17.1795 8.2372 16.5075 7.7297 16.0886 7.01336C15.8203 6.56536 15.6745 6.04386 15.6698 5.51303C15.6803 5.11403 15.5403 4.75586 15.286 4.49336C15.0328 4.23203 14.677 4.08386 14.3118 4.08386H12.85C12.4883 4.08386 12.15 4.22503 11.8945 4.47936C11.6401 4.73486 11.5013 5.07436 11.5036 5.43603C11.4791 7.1417 10.085 8.51486 8.39679 8.51486C7.85546 8.50903 7.33396 8.3632 6.88129 8.09253C6.24546 7.73086 5.41479 7.9537 5.04262 8.6012L4.25279 9.8997C3.89112 10.5274 4.11279 11.3569 4.75679 11.7314C5.71229 12.2844 6.30846 13.3157 6.30846 14.4217C6.30846 15.5277 5.71229 16.5579 4.75446 17.112C4.11396 17.483 3.89229 18.3079 4.26329 18.9495L4.99946 20.2189C5.18146 20.5467 5.47896 20.7835 5.82312 20.8804C6.16612 20.976 6.54412 20.9352 6.85912 20.7602C7.32229 20.4884 7.86129 20.3472 8.40262 20.3472M14.3118 26.5084H12.85C11.1361 26.5084 9.74196 25.1154 9.74196 23.4015C9.73963 23.1904 9.67896 22.971 9.56579 22.7809C9.38263 22.4612 9.08629 22.2325 8.74446 22.1415C8.40496 22.0505 8.03279 22.1007 7.72713 22.278C6.99446 22.6864 6.13229 22.7855 5.34363 22.5639C4.55613 22.341 3.87596 21.7997 3.47696 21.0822L2.74779 19.8257C1.89496 18.3464 2.40246 16.4505 3.87946 15.5965C4.29829 15.355 4.55846 14.9047 4.55846 14.4217C4.55846 13.9387 4.29829 13.4872 3.87946 13.2457C2.40129 12.387 1.89496 10.4865 2.74663 9.0072L3.53763 7.7087C4.37879 6.2457 6.28046 5.73003 7.76329 6.5817C7.96513 6.70186 8.18446 6.76253 8.40729 6.76486C9.13413 6.76486 9.74196 6.1652 9.75363 5.42786C9.74896 4.6147 10.0698 3.8342 10.6543 3.24503C11.2411 2.65703 12.0205 2.33386 12.85 2.33386H14.3118C15.1471 2.33386 15.9591 2.67686 16.5413 3.27303C17.1223 3.8727 17.4431 4.6952 17.4186 5.52936C17.421 5.7172 17.4828 5.9342 17.5948 6.12436C17.7803 6.43936 18.0731 6.66103 18.4208 6.75203C18.7685 6.83836 19.1325 6.7917 19.4416 6.60853C20.935 5.7557 22.8355 6.2667 23.6883 7.74836L24.4151 9.0072C24.4338 9.04103 24.4501 9.0737 24.4641 9.10753C25.2365 10.567 24.7208 12.4045 23.2858 13.2434C23.077 13.3635 22.9078 13.5315 22.7911 13.7345C22.6103 14.0484 22.5601 14.4217 22.6511 14.7647C22.7445 15.1147 22.9673 15.4052 23.2811 15.5849C23.9893 15.992 24.5178 16.678 24.729 17.4702C24.9401 18.2612 24.8246 19.1199 24.4128 19.828L23.6381 21.1184C22.7853 22.5837 20.8848 23.0912 19.4066 22.2372C19.2095 22.124 18.982 22.0622 18.7556 22.0564H18.7486C18.4115 22.0564 18.065 22.1999 17.813 22.4507C17.5575 22.7062 17.4175 23.0469 17.4198 23.4085C17.4116 25.1224 16.0175 26.5084 14.3118 26.5084" fill="#242424" fill-opacity="0.8"/>
</g>
<path fill-rule="evenodd" clip-rule="evenodd" d="M13.586 12.2203C12.3726 12.2203 11.3856 13.2085 11.3856 14.4218C11.3856 15.6352 12.3726 16.621 13.586 16.621C14.7993 16.621 15.7863 15.6352 15.7863 14.4218C15.7863 13.2085 14.7993 12.2203 13.586 12.2203M13.586 18.371C11.4078 18.371 9.63562 16.6 9.63562 14.4218C9.63562 12.2437 11.4078 10.4703 13.586 10.4703C15.7641 10.4703 17.5363 12.2437 17.5363 14.4218C17.5363 16.6 15.7641 18.371 13.586 18.371" fill="#242424" fill-opacity="0.8"/>
</svg>
